<svg width="44" height="69" viewBox="0 0 44 69" fill="none" xmlns="http://www.w3.org/2000/svg">
<path fill-rule="evenodd" clip-rule="evenodd" d="M18.1874 0.31165C18.1058 0.558937 18.2181 0.833733 18.4381 0.925423C24.7981 3.5752 30.7984 8.46048 34.9993 14.486C39.3978 20.7946 42.6373 30.3069 42.6593 38.3172C42.6863 48.1428 37.5987 57.0448 29.9927 61.7207C26.4106 63.9229 23.5381 64.8132 19.5003 65.5217C15.7551 66.1789 12.2327 65.9453 8.57775 65.703C7.13483 65.6073 5.67125 65.5103 4.16518 65.4661C3.93054 65.4592 3.73537 65.6674 3.72925 65.931C3.72313 66.1947 3.90837 66.414 4.14301 66.4209C5.58858 66.4633 7.01742 66.558 8.44175 66.6524C12.131 66.8969 15.7901 67.1394 19.6314 66.4654C23.7359 65.7451 26.709 64.8281 30.4006 62.5586C38.2569 57.7289 43.5373 48.5186 43.5093 38.3142C43.4866 30.0676 40.1697 20.3531 35.6684 13.897C31.3694 7.73075 25.2391 2.74033 18.7336 0.0299179C18.5136 -0.0617728 18.269 0.064363 18.1874 0.31165Z" fill="#FDF1F2"/>
<path fill-rule="evenodd" clip-rule="evenodd" d="M8.41904 63.0238C8.31788 62.7858 8.06418 62.685 7.85238 62.7987C7.05593 63.2261 6.19862 63.4846 5.30782 63.7532C4.9859 63.8502 4.6596 63.9486 4.33023 64.0568C3.04808 64.4777 1.81054 64.7391 0.488994 64.8282C0.448817 64.8309 0.392631 64.8373 0.333852 64.8569C0.293227 64.8705 0.150051 64.9216 0.0613712 65.0913C-0.0533785 65.3109 0.0190831 65.5189 0.067908 65.6085C0.112833 65.6909 0.169629 65.7437 0.196756 65.7676C0.301929 65.8602 0.469952 65.9454 0.598535 66.0075C0.745997 66.0787 0.916799 66.1534 1.06961 66.2195C1.10043 66.2329 1.13032 66.2458 1.15914 66.2582C1.27788 66.3094 1.3783 66.3527 1.44956 66.3859C2.96736 67.0931 4.35283 67.9722 5.78641 68.9319C5.98806 69.0669 6.2489 68.9926 6.36903 68.766C6.48916 68.5395 6.42308 68.2464 6.22144 68.1114C4.85046 67.1936 3.49081 66.3268 2.00408 65.612C2.86701 65.4698 3.71064 65.2552 4.56863 64.9735C4.85698 64.8788 5.15742 64.7883 5.4642 64.6959C6.37676 64.421 7.34541 64.1292 8.21871 63.6605C8.4305 63.5469 8.5202 63.2618 8.41904 63.0238ZM0.536382 65.7819C0.536433 65.7819 0.537138 65.7819 0.538435 65.7817C0.53699 65.7818 0.536329 65.7819 0.536382 65.7819Z" fill="#FDF1F2"/>
</svg>
