<svg width="26" height="26" viewBox="0 0 26 26" fill="none" xmlns="http://www.w3.org/2000/svg">
<path d="M10.228 10.4888C7.67012 8.41213 5.24591 6.55496 2.97285 4.53459C2.35662 3.98307 1.72294 2.75622 1.96711 2.17656C2.2229 1.54625 3.52511 0.938452 4.32156 1.00036C5.25171 1.07352 6.27489 1.71509 6.99576 2.38479C8.89676 4.13503 10.6524 6.03158 12.4604 7.86623C15.1462 5.63763 17.6519 3.44843 20.2795 1.41118C22.9305 -0.642953 23.2851 -0.547277 26 2.31163C24.971 3.17268 23.9537 4.02809 22.9363 4.87789C20.483 6.92077 18.0239 8.96365 15.6113 10.9671C17.8204 14.2988 19.7389 17.349 21.8318 20.2867C22.7445 21.5698 23.4304 22.7179 21.8201 23.7928C20.0819 24.9521 19.0122 23.5508 18.2216 22.4421C16.5996 20.1854 15.2044 17.7767 13.7045 15.4356C13.4894 15.0979 13.2045 14.8053 12.7685 14.265C10.2804 17.0958 7.89105 19.7858 5.53659 22.5097C5.24592 22.8473 5.25173 23.427 4.95524 23.759C4.22275 24.5751 3.51349 25.6387 2.56008 25.9651C1.96129 26.1734 0.496295 25.408 0.217248 24.7608C-0.137374 23.9335 -0.0617971 22.5209 0.473042 21.8175C2.45544 19.2287 4.69945 16.8256 6.84462 14.3607C7.84454 13.207 8.85608 12.0645 10.2397 10.4888H10.228Z" fill="white"/>
</svg>
