<svg width="14" height="12" viewBox="0 0 14 12" fill="none" xmlns="http://www.w3.org/2000/svg">
<g clip-path="url(#clip0_66_374)">
<path d="M6.22222 12C6.00185 12 5.817 11.928 5.66766 11.784C5.51833 11.64 5.44392 11.462 5.44444 11.25V6.75L0.93333 1.2C0.738886 0.95 0.70959 0.6875 0.845442 0.4125C0.981293 0.1375 1.218 0 1.55555 0H12.4444C12.7815 0 13.0182 0.1375 13.1546 0.4125C13.2909 0.6875 13.2616 0.95 13.0667 1.2L8.55555 6.75V11.25C8.55555 11.4625 8.48089 11.6407 8.33155 11.7847C8.18222 11.9287 7.99763 12.0005 7.77777 12H6.22222ZM7 6.225L10.85 1.5H3.15L7 6.225Z" fill="#FDF1F2"/>
</g>
<defs>
<clipPath id="clip0_66_374">
<rect width="14" height="12" fill="white"/>
</clipPath>
</defs>
</svg>
