<svg width="12" height="12" viewBox="0 0 12 12" fill="none" xmlns="http://www.w3.org/2000/svg">
<path d="M4.72064 4.84097C3.54006 3.88252 2.42119 3.02537 1.37208 2.09289C1.08767 1.83834 0.795204 1.2721 0.907896 1.00457C1.02595 0.713653 1.62697 0.433132 1.99457 0.461703C2.42387 0.49547 2.8961 0.791579 3.22881 1.10067C4.1062 1.90847 4.91651 2.78381 5.75096 3.63057C6.99057 2.60199 8.14701 1.59158 9.35979 0.651315C10.5833 -0.296748 10.747 -0.25259 12 1.06691C11.5251 1.46431 11.0555 1.85912 10.586 2.25133C9.4537 3.1942 8.31873 4.13707 7.20523 5.06175C8.22482 6.59943 9.11026 8.00724 10.0762 9.3631C10.4974 9.95531 10.8141 10.4852 10.0708 10.9813C9.26856 11.5164 8.77486 10.8696 8.40996 10.3579C7.66136 9.31635 7.01741 8.20464 6.32516 7.12411C6.22588 6.96827 6.0944 6.8332 5.89317 6.58385C4.74478 7.89036 3.64202 9.13193 2.55535 10.3891C2.42119 10.5449 2.42388 10.8125 2.28703 10.9657C1.94896 11.3423 1.62161 11.8333 1.18157 11.9839C0.90521 12.08 0.229059 11.7268 0.100268 11.4281C-0.0634032 11.0462 -0.0285217 10.3943 0.218327 10.0696C1.13328 8.87478 2.16898 7.76568 3.15906 6.62801C3.62056 6.09553 4.08742 5.56825 4.72601 4.84097H4.72064Z" fill="#0D0106"/>
</svg>
