<svg width="123" height="57" viewBox="0 0 123 57" fill="none" xmlns="http://www.w3.org/2000/svg">
<path fill-rule="evenodd" clip-rule="evenodd" d="M122.336 0.0141681C122.778 0.0972831 123.069 0.523112 122.986 0.965285C121.3 9.9358 115.91 18.018 108.973 24.5881C102.033 31.1613 93.4948 36.2694 85.4089 39.2838C60.2563 48.6609 33.7576 50.2217 7.36468 51.1114C6.91502 51.1265 6.53821 50.7743 6.52305 50.3246C6.5079 49.875 6.86013 49.4982 7.30979 49.483C33.7073 48.5932 59.9628 47.0315 84.8398 37.7572C92.7307 34.8154 101.079 29.8207 107.852 23.4052C114.629 16.9865 119.781 9.19402 121.385 0.664298C121.468 0.222126 121.894 -0.068947 122.336 0.0141681Z" fill="#FDF1F2"/>
<path fill-rule="evenodd" clip-rule="evenodd" d="M10.4867 44.9471C10.8985 45.1283 11.0855 45.6091 10.9043 46.0209C10.6009 46.7103 10.243 47.2869 9.76074 47.7801C9.27922 48.2726 8.70663 48.6484 8.01697 48.9777C5.8363 50.0191 3.40706 50.5565 1.13489 50.9482C0.691519 51.0247 0.270123 50.7272 0.193679 50.2838C0.117235 49.8404 0.414691 49.4191 0.858065 49.3426C3.09627 48.9567 5.34374 48.4488 7.31485 47.5075C7.88402 47.2356 8.28301 46.961 8.59575 46.6411C8.90779 46.322 9.16674 45.9243 9.41297 45.3647C9.59416 44.9529 10.0749 44.7659 10.4867 44.9471Z" fill="#FDF1F2"/>
<path fill-rule="evenodd" clip-rule="evenodd" d="M0.0339646 49.9646C0.162127 49.5334 0.615641 49.2876 1.04692 49.4158C1.41534 49.5253 1.81278 49.6362 2.22935 49.7525C3.66923 50.1545 5.33766 50.6203 6.82632 51.3096C8.76855 52.2088 10.5882 53.5643 11.3492 55.8474C11.4915 56.2742 11.2608 56.7356 10.834 56.8778C10.4072 57.0201 9.94583 56.7894 9.80355 56.3626C9.24614 54.6904 7.89549 53.6 6.14179 52.7881C4.78526 52.16 3.29651 51.7438 1.87636 51.3467C1.43661 51.2237 1.00343 51.1026 0.5828 50.9776C0.151525 50.8494 -0.0941975 50.3959 0.0339646 49.9646Z" fill="#FDF1F2"/>
</svg>
