<svg width="21" height="21" viewBox="0 0 21 21" fill="none" xmlns="http://www.w3.org/2000/svg">
<g clip-path="url(#clip0_186_432)">
<path d="M10.5 21C9.05227 21 7.68791 20.7254 6.40691 20.1762C5.12591 19.627 4.01227 18.8793 3.066 17.933C2.11973 16.9868 1.372 15.8731 0.822819 14.5921C0.273637 13.3111 -0.000635259 11.9471 1.1048e-06 10.5C1.1048e-06 9.03636 0.274592 7.66818 0.823774 6.39545C1.37296 5.12273 2.12068 4.01291 3.06696 3.066C4.01323 2.11973 5.12686 1.372 6.40786 0.822819C7.68886 0.273637 9.05291 -0.000635259 10.5 1.1048e-06C11.9636 1.1048e-06 13.3318 0.274592 14.6045 0.823774C15.8773 1.37296 16.9871 2.12068 17.934 3.06696C18.8803 4.01323 19.628 5.12273 20.1772 6.39545C20.7264 7.66818 21.0006 9.03636 21 10.5C21 11.9477 20.7254 13.3121 20.1762 14.5931C19.627 15.8741 18.8793 16.9877 17.933 17.934C16.9868 18.8803 15.8773 19.628 14.6045 20.1772C13.3318 20.7264 11.9636 21.0006 10.5 21ZM9.90341 17.9216C10.0625 18.0807 10.2455 18.1602 10.4523 18.1602C10.6591 18.1602 10.842 18.0807 11.0011 17.9216L17.8739 11.0489C18.033 10.8898 18.1125 10.6989 18.1125 10.4761C18.1125 10.2534 18.033 10.0625 17.8739 9.90341L11.0011 3.03068C10.842 2.87159 10.6591 2.79205 10.4523 2.79205C10.2455 2.79205 10.0625 2.87159 9.90341 3.03068L3.03068 9.90341C2.87159 10.0625 2.79205 10.2534 2.79205 10.4761C2.79205 10.6989 2.87159 10.8898 3.03068 11.0489L9.90341 17.9216ZM6.65795 13.3398V9.52159C6.65795 9.23523 6.74545 9.00455 6.92045 8.82955C7.09545 8.65455 7.32614 8.56705 7.6125 8.56705H11.5739L10.5716 7.51705L11.908 6.18068L15.2489 9.52159L11.908 12.8625L10.5716 11.5261L11.5739 10.4761H8.56705V13.3398H6.65795ZM10.5 19.0909C12.9023 19.0909 14.9348 18.2595 16.5976 16.5967C18.2605 14.9339 19.0915 12.9016 19.0909 10.5C19.0909 8.09773 18.2595 6.06518 16.5967 4.40236C14.9339 2.73955 12.9016 1.90846 10.5 1.90909C8.09773 1.90909 6.06518 2.7405 4.40236 4.40332C2.73955 6.06614 1.90846 8.09836 1.90909 10.5C1.90909 12.9023 2.7405 14.9348 4.40332 16.5976C6.06614 18.2605 8.09836 19.0915 10.5 19.0909Z" fill="#FDF1F2"/>
</g>
<defs>
<clipPath id="clip0_186_432">
<rect width="21" height="21" fill="white"/>
</clipPath>
</defs>
</svg>
