<svg width="12" height="15" viewBox="0 0 12 15" fill="none" xmlns="http://www.w3.org/2000/svg">
<g clip-path="url(#clip0_81_402)">
<path d="M11.29 0.761093C11.1975 0.661768 11.0876 0.582967 10.9666 0.529201C10.8457 0.475436 10.716 0.44776 10.585 0.44776C10.454 0.44776 10.3244 0.475436 10.2034 0.529201C10.0824 0.582967 9.97252 0.661768 9.88001 0.761093L6.00001 4.90752L2.11001 0.750379C2.01743 0.651184 1.90752 0.572498 1.78655 0.518814C1.66559 0.46513 1.53594 0.4375 1.40501 0.4375C1.27408 0.4375 1.14443 0.46513 1.02347 0.518814C0.902502 0.572498 0.792592 0.651184 0.70001 0.750379C0.607428 0.849574 0.533988 0.967335 0.483883 1.09694C0.433778 1.22654 0.40799 1.36545 0.40799 1.50574C0.40799 1.64602 0.433778 1.78493 0.483883 1.91453C0.533988 2.04414 0.607428 2.1619 0.70001 2.26109L5.29001 7.17895C5.68001 7.59681 6.31001 7.59681 6.70001 7.17895L11.29 2.26109C11.3827 2.16303 11.4562 2.04625 11.5064 1.9175C11.5566 1.78876 11.5824 1.65062 11.5824 1.51109C11.5824 1.37157 11.5566 1.23343 11.5064 1.10468C11.4562 0.97594 11.3827 0.859154 11.29 0.761093Z" fill="#0D0106"/>
<path d="M11.29 7.82164C11.1975 7.72232 11.0876 7.64351 10.9666 7.58975C10.8456 7.53598 10.716 7.50831 10.585 7.50831C10.454 7.50831 10.3243 7.53598 10.2034 7.58975C10.0824 7.64351 9.9725 7.72232 9.87999 7.82164L5.99999 11.9681L2.11999 7.81093C1.93301 7.61059 1.67942 7.49805 1.41499 7.49805C1.15056 7.49805 0.896967 7.61059 0.70999 7.81093C0.523012 8.01126 0.417969 8.28297 0.417969 8.56628C0.417969 8.8496 0.523012 9.12131 0.70999 9.32164L5.29999 14.2395C5.68999 14.6574 6.31999 14.6574 6.70999 14.2395L11.3 9.32164C11.4836 9.12089 11.5856 8.85047 11.5837 8.56943C11.5818 8.28839 11.4762 8.01956 11.29 7.82164Z" fill="#0D0106"/>
</g>
<defs>
<clipPath id="clip0_81_402">
<rect width="12" height="15" fill="white"/>
</clipPath>
</defs>
</svg>
