<svg width="51" height="28" viewBox="0 0 51 28" fill="none" xmlns="http://www.w3.org/2000/svg">
<g clip-path="url(#clip0_101_117)">
<path d="M13.5 27C13.5 27 16.875 23.8016 16.875 21.375C16.875 20.4799 16.5194 19.6214 15.8865 18.9885C15.2535 18.3556 14.3951 18 13.5 18C12.6049 18 11.7464 18.3556 11.1135 18.9885C10.4806 19.6214 10.125 20.4799 10.125 21.375C10.125 23.8016 13.5 27 13.5 27ZM13.5 23.0625C13.0524 23.0625 12.6232 22.8847 12.3068 22.5682C11.9903 22.2518 11.8125 21.8226 11.8125 21.375C11.8125 20.9274 11.9903 20.4982 12.3068 20.1818C12.6232 19.8653 13.0524 19.6875 13.5 19.6875C13.9476 19.6875 14.3768 19.8653 14.6932 20.1818C15.0097 20.4982 15.1875 20.9274 15.1875 21.375C15.1875 21.8226 15.0097 22.2518 14.6932 22.5682C14.3768 22.8847 13.9476 23.0625 13.5 23.0625Z" fill="#FDF1F2"/>
<path d="M15.525 21.6004C15.525 22.7762 14.6026 23.7004 13.5 23.7004C12.3974 23.7004 11.475 22.7762 11.475 21.6004C11.475 20.4245 12.3974 19.5004 13.5 19.5004C14.6026 19.5004 15.525 20.4245 15.525 21.6004Z" stroke="#FDF1F2" stroke-width="1.2"/>
</g>
<path d="M10.0285 2.82025C11.3421 2.82025 12.3007 3.10341 12.9041 3.66973C13.5076 4.2314 13.8093 5.0066 13.8093 5.99533C13.8093 6.44096 13.742 6.86801 13.6074 7.2765C13.4728 7.68035 13.2523 8.0401 12.9459 8.35575C12.6442 8.6714 12.2403 8.92207 11.7344 9.10774C11.2284 9.28878 10.6041 9.3793 9.86135 9.3793H8.93528V13H6.77679V2.82025H10.0285ZM9.91705 4.58883H8.93528V7.61072H9.6455C10.0493 7.61072 10.3998 7.55734 10.6969 7.45058C10.994 7.34381 11.2238 7.1767 11.3862 6.94925C11.5487 6.72179 11.6299 6.42935 11.6299 6.07192C11.6299 5.5706 11.4907 5.19924 11.2121 4.95786C10.9336 4.71184 10.5019 4.58883 9.91705 4.58883ZM19.9088 5.06927C20.0156 5.06927 20.1386 5.07623 20.2778 5.09016C20.4217 5.09944 20.5378 5.11337 20.626 5.13193L20.4658 7.12332C20.3962 7.10011 20.2964 7.08386 20.1664 7.07458C20.0411 7.06065 19.932 7.05369 19.8392 7.05369C19.5653 7.05369 19.2984 7.08851 19.0384 7.15813C18.7831 7.22776 18.5534 7.34149 18.3491 7.49932C18.1449 7.6525 17.9824 7.85674 17.8617 8.11205C17.7457 8.36271 17.6876 8.6714 17.6876 9.03812V13H15.564V5.21549H17.1724L17.4857 6.52451H17.5902C17.7433 6.25992 17.9337 6.01854 18.1611 5.80037C18.3932 5.57756 18.6555 5.40117 18.9479 5.27119C19.245 5.13658 19.5653 5.06927 19.9088 5.06927ZM25.2284 5.05534C26.2729 5.05534 27.0736 5.2828 27.6306 5.7377C28.1877 6.19261 28.4662 6.88426 28.4662 7.81265V13H26.9831L26.5723 11.9416H26.5166C26.2938 12.2202 26.0663 12.4476 25.8342 12.624C25.6021 12.8004 25.3352 12.9304 25.0335 13.0139C24.7318 13.0975 24.365 13.1393 23.9333 13.1393C23.4738 13.1393 23.0607 13.0511 22.694 12.8747C22.3319 12.6983 22.0464 12.429 21.8375 12.067C21.6286 11.7003 21.5242 11.2361 21.5242 10.6744C21.5242 9.84813 21.8143 9.24004 22.3946 8.85012C22.9748 8.45555 23.8452 8.23738 25.0056 8.19561L26.3564 8.15383V7.81265C26.3564 7.40416 26.2497 7.10475 26.0361 6.91443C25.8226 6.72411 25.5255 6.62895 25.1449 6.62895C24.7689 6.62895 24.3999 6.68234 24.0378 6.7891C23.6757 6.89587 23.3137 7.03048 22.9516 7.19295L22.2483 5.75859C22.6615 5.54042 23.1233 5.36867 23.6339 5.24334C24.1492 5.11801 24.6807 5.05534 25.2284 5.05534ZM26.3564 9.39322L25.5348 9.42107C24.8478 9.43964 24.3697 9.56265 24.1005 9.79011C23.8359 10.0176 23.7036 10.317 23.7036 10.6883C23.7036 11.0133 23.7987 11.2454 23.9891 11.3846C24.1794 11.5192 24.4277 11.5865 24.7341 11.5865C25.189 11.5865 25.5719 11.4519 25.883 11.1827C26.1986 10.9135 26.3564 10.5305 26.3564 10.0338V9.39322ZM33.8207 13.1393C33.0501 13.1393 32.3933 13 31.8502 12.7215C31.3071 12.4383 30.8939 12.002 30.6108 11.4125C30.3276 10.8229 30.186 10.0686 30.186 9.14952C30.186 8.19793 30.3462 7.42272 30.6665 6.82392C30.9914 6.22047 31.4393 5.77716 32.0103 5.494C32.5859 5.21085 33.252 5.06927 34.0087 5.06927C34.5471 5.06927 35.0113 5.12265 35.4012 5.22941C35.7958 5.33154 36.1393 5.45455 36.4317 5.59845L35.8051 7.24169C35.4709 7.10707 35.1598 6.99799 34.8721 6.91443C34.5843 6.82624 34.2965 6.78214 34.0087 6.78214C33.6373 6.78214 33.3286 6.87034 33.0826 7.04673C32.8366 7.21848 32.6532 7.47843 32.5325 7.82657C32.4118 8.17472 32.3515 8.61106 32.3515 9.1356C32.3515 9.65085 32.4165 10.0779 32.5464 10.4168C32.6764 10.7556 32.8644 11.0086 33.1104 11.1757C33.3565 11.3382 33.6559 11.4194 34.0087 11.4194C34.4496 11.4194 34.8419 11.3614 35.1854 11.2454C35.5289 11.1247 35.8631 10.9576 36.188 10.744V12.5613C35.8631 12.7656 35.5219 12.9118 35.1645 13C34.8117 13.0928 34.3638 13.1393 33.8207 13.1393ZM41.1874 5.05534C42.2318 5.05534 43.0326 5.2828 43.5896 5.7377C44.1466 6.19261 44.4251 6.88426 44.4251 7.81265V13H42.942L42.5312 11.9416H42.4755C42.2527 12.2202 42.0253 12.4476 41.7932 12.624C41.5611 12.8004 41.2942 12.9304 40.9924 13.0139C40.6907 13.0975 40.324 13.1393 39.8923 13.1393C39.4327 13.1393 39.0196 13.0511 38.6529 12.8747C38.2908 12.6983 38.0053 12.429 37.7965 12.067C37.5876 11.7003 37.4831 11.2361 37.4831 10.6744C37.4831 9.84813 37.7733 9.24004 38.3535 8.85012C38.9337 8.45555 39.8041 8.23738 40.9646 8.19561L42.3154 8.15383V7.81265C42.3154 7.40416 42.2086 7.10475 41.9951 6.91443C41.7816 6.72411 41.4845 6.62895 41.1038 6.62895C40.7278 6.62895 40.3588 6.68234 39.9967 6.7891C39.6347 6.89587 39.2726 7.03048 38.9105 7.19295L38.2073 5.75859C38.6204 5.54042 39.0823 5.36867 39.5929 5.24334C40.1081 5.11801 40.6396 5.05534 41.1874 5.05534ZM42.3154 9.39322L41.4938 9.42107C40.8068 9.43964 40.3286 9.56265 40.0594 9.79011C39.7948 10.0176 39.6625 10.317 39.6625 10.6883C39.6625 11.0133 39.7577 11.2454 39.948 11.3846C40.1383 11.5192 40.3867 11.5865 40.693 11.5865C41.1479 11.5865 41.5309 11.4519 41.8419 11.1827C42.1576 10.9135 42.3154 10.5305 42.3154 10.0338V9.39322ZM4.93051 16.8203C6.24417 16.8203 7.20273 17.1034 7.80618 17.6697C8.40963 18.2314 8.71136 19.0066 8.71136 19.9953C8.71136 20.441 8.64405 20.868 8.50943 21.2765C8.37482 21.6804 8.15433 22.0401 7.84796 22.3558C7.54623 22.6714 7.14239 22.9221 6.63642 23.1077C6.13045 23.2888 5.50611 23.3793 4.7634 23.3793H3.83733V27H1.67884V16.8203H4.93051ZM4.8191 18.5888H3.83733V21.6107H4.54755C4.9514 21.6107 5.30186 21.5573 5.59894 21.4506C5.89603 21.3438 6.1258 21.1767 6.28827 20.9492C6.45074 20.7218 6.53197 20.4294 6.53197 20.0719C6.53197 19.5706 6.39271 19.1992 6.1142 18.9579C5.83568 18.7118 5.40398 18.5888 4.8191 18.5888ZM23.5028 19.0693C23.6095 19.0693 23.7325 19.0762 23.8718 19.0902C24.0157 19.0994 24.1317 19.1134 24.2199 19.1319L24.0598 21.1233C23.9902 21.1001 23.8904 21.0839 23.7604 21.0746C23.6351 21.0607 23.526 21.0537 23.4331 21.0537C23.1593 21.0537 22.8924 21.0885 22.6324 21.1581C22.3771 21.2278 22.1473 21.3415 21.9431 21.4993C21.7388 21.6525 21.5764 21.8567 21.4557 22.1121C21.3396 22.3627 21.2816 22.6714 21.2816 23.0381V27H19.1579V19.2155H20.7663L21.0797 20.5245H21.1841C21.3373 20.2599 21.5276 20.0185 21.7551 19.8004C21.9872 19.5776 22.2494 19.4012 22.5419 19.2712C22.839 19.1366 23.1593 19.0693 23.5028 19.0693ZM32.7773 19.2155V27H31.148L30.8625 26.0043H30.7511C30.584 26.2689 30.3751 26.4847 30.1245 26.6519C29.8738 26.819 29.5976 26.942 29.2959 27.0209C28.9942 27.0998 28.6808 27.1393 28.3559 27.1393C27.7989 27.1393 27.3138 27.0418 26.9007 26.8468C26.4875 26.6472 26.1649 26.3385 25.9328 25.9208C25.7054 25.503 25.5916 24.9599 25.5916 24.2914V19.2155H27.7153V23.7623C27.7153 24.3193 27.8151 24.7394 28.0147 25.0225C28.2143 25.3057 28.5323 25.4473 28.9686 25.4473C29.4003 25.4473 29.7392 25.3498 29.9852 25.1548C30.2312 24.9552 30.403 24.6651 30.5005 24.2845C30.6026 23.8992 30.6537 23.4304 30.6537 22.878V19.2155H32.7773ZM38.1666 27.1393C37.3961 27.1393 36.7392 27 36.1961 26.7215C35.653 26.4383 35.2399 26.002 34.9567 25.4125C34.6736 24.8229 34.532 24.0686 34.532 23.1495C34.532 22.1979 34.6921 21.4227 35.0124 20.8239C35.3374 20.2205 35.7853 19.7772 36.3563 19.494C36.9319 19.2108 37.598 19.0693 38.3546 19.0693C38.8931 19.0693 39.3573 19.1226 39.7472 19.2294C40.1418 19.3315 40.4853 19.4545 40.7777 19.5984L40.151 21.2417C39.8168 21.1071 39.5058 20.998 39.218 20.9144C38.9302 20.8262 38.6424 20.7821 38.3546 20.7821C37.9833 20.7821 37.6746 20.8703 37.4285 21.0467C37.1825 21.2185 36.9992 21.4784 36.8785 21.8266C36.7578 22.1747 36.6974 22.6111 36.6974 23.1356C36.6974 23.6508 36.7624 24.0779 36.8924 24.4168C37.0224 24.7556 37.2104 25.0086 37.4564 25.1757C37.7024 25.3382 38.0018 25.4194 38.3546 25.4194C38.7956 25.4194 39.1878 25.3614 39.5313 25.2454C39.8748 25.1247 40.2091 24.9576 40.534 24.744V26.5613C40.2091 26.7656 39.8679 26.9118 39.5104 27C39.1577 27.0928 38.7097 27.1393 38.1666 27.1393ZM44.468 16.1657V18.373C44.468 18.7583 44.4541 19.125 44.4263 19.4731C44.403 19.8213 44.3845 20.0673 44.3705 20.2112H44.482C44.6491 19.9419 44.8463 19.7238 45.0738 19.5567C45.3059 19.3896 45.5612 19.2665 45.8397 19.1876C46.1182 19.1087 46.4176 19.0693 46.7379 19.0693C47.2996 19.0693 47.7893 19.1691 48.2071 19.3687C48.6249 19.5636 48.9498 19.8723 49.1819 20.2947C49.414 20.7125 49.5301 21.2556 49.5301 21.9241V27H47.4064V22.4532C47.4064 21.8962 47.3042 21.4761 47.1 21.1929C46.8958 20.9098 46.5801 20.7682 46.153 20.7682C45.726 20.7682 45.3895 20.868 45.1434 21.0676C44.8974 21.2626 44.7233 21.5527 44.6212 21.938C44.5191 22.3186 44.468 22.7851 44.468 23.3375V27H42.3443V16.1657H44.468Z" fill="#FDF1F2"/>
<defs>
<clipPath id="clip0_101_117">
<rect width="7" height="9" fill="white" transform="translate(10 18)"/>
</clipPath>
</defs>
</svg>
