<svg width="112" height="24" viewBox="0 0 112 24" fill="none" xmlns="http://www.w3.org/2000/svg">
<g clip-path="url(#clip0_66_381)">
<path d="M66.0001 18.7002C66.0001 18.7002 70.243 14.7911 70.243 11.8252C70.243 10.7312 69.7959 9.68197 69.0002 8.90838C68.2046 8.13479 67.1254 7.7002 66.0001 7.7002C64.8748 7.7002 63.7956 8.13479 62.9999 8.90838C62.2043 9.68197 61.7572 10.7312 61.7572 11.8252C61.7572 14.7911 66.0001 18.7002 66.0001 18.7002ZM66.0001 13.8877C65.4375 13.8877 64.8979 13.6704 64.5 13.2836C64.1022 12.8968 63.8787 12.3722 63.8787 11.8252C63.8787 11.2782 64.1022 10.7536 64.5 10.3668C64.8979 9.97999 65.4375 9.7627 66.0001 9.7627C66.5627 9.7627 67.1023 9.97999 67.5002 10.3668C67.898 10.7536 68.1215 11.2782 68.1215 11.8252C68.1215 12.3722 67.898 12.8968 67.5002 13.2836C67.1023 13.6704 66.5627 13.8877 66.0001 13.8877Z" fill="#FDF1F2"/>
<circle cx="66.0001" cy="12.0998" r="2.2" stroke="#FDF1F2" stroke-width="2.2"/>
</g>
<path d="M5.59453 6.43594C7.21589 6.43594 8.39896 6.78542 9.14375 7.48437C9.88854 8.1776 10.2609 9.13437 10.2609 10.3547C10.2609 10.9047 10.1779 11.4318 10.0117 11.9359C9.84557 12.4344 9.57344 12.8784 9.19531 13.268C8.82292 13.6576 8.32448 13.9669 7.7 14.1961C7.07552 14.4195 6.30495 14.5312 5.38828 14.5312H4.24531V19H1.58125V6.43594H5.59453ZM5.45703 8.61875H4.24531V12.3484H5.12188C5.62031 12.3484 6.05286 12.2826 6.41953 12.1508C6.7862 12.019 7.06979 11.8128 7.27031 11.532C7.47083 11.2513 7.57109 10.8904 7.57109 10.4492C7.57109 9.83047 7.39922 9.37214 7.05547 9.07422C6.71172 8.77057 6.17891 8.61875 5.45703 8.61875ZM17.7891 9.21172C17.9208 9.21172 18.0727 9.22031 18.2445 9.2375C18.4221 9.24896 18.5654 9.26615 18.6742 9.28906L18.4766 11.7469C18.3906 11.7182 18.2674 11.6982 18.107 11.6867C17.9523 11.6695 17.8177 11.6609 17.7031 11.6609C17.3651 11.6609 17.0357 11.7039 16.7148 11.7898C16.3997 11.8758 16.1161 12.0161 15.8641 12.2109C15.612 12.4 15.4115 12.6521 15.2625 12.9672C15.1193 13.2766 15.0477 13.6576 15.0477 14.1102V19H12.4266V9.39219H14.4117L14.7984 11.0078H14.9273C15.1164 10.6812 15.3513 10.3833 15.632 10.1141C15.9185 9.83906 16.2422 9.62135 16.6031 9.46094C16.9698 9.29479 17.3651 9.21172 17.7891 9.21172ZM24.3547 9.19453C25.6438 9.19453 26.632 9.47526 27.3195 10.0367C28.007 10.5982 28.3508 11.4518 28.3508 12.5977V19H26.5203L26.0133 17.6937H25.9445C25.6695 18.0375 25.3888 18.3182 25.1023 18.5359C24.8159 18.7536 24.4865 18.9141 24.1141 19.0172C23.7417 19.1203 23.2891 19.1719 22.7563 19.1719C22.1891 19.1719 21.6792 19.063 21.2266 18.8453C20.7797 18.6276 20.4273 18.2953 20.1695 17.8484C19.9117 17.3958 19.7828 16.8229 19.7828 16.1297C19.7828 15.1099 20.1409 14.3594 20.857 13.8781C21.5732 13.3911 22.6474 13.1219 24.0797 13.0703L25.7469 13.0187V12.5977C25.7469 12.0935 25.6151 11.724 25.3516 11.4891C25.088 11.2542 24.7214 11.1367 24.2516 11.1367C23.7875 11.1367 23.332 11.2026 22.8852 11.3344C22.4383 11.4661 21.9914 11.6323 21.5445 11.8328L20.6766 10.0625C21.1865 9.79323 21.7565 9.58125 22.3867 9.42656C23.0227 9.27187 23.6786 9.19453 24.3547 9.19453ZM25.7469 14.5484L24.7328 14.5828C23.8849 14.6057 23.2948 14.7576 22.9625 15.0383C22.6359 15.319 22.4727 15.6885 22.4727 16.1469C22.4727 16.5479 22.5901 16.8344 22.825 17.0062C23.0599 17.1724 23.3664 17.2555 23.7445 17.2555C24.306 17.2555 24.7786 17.0893 25.1625 16.757C25.5521 16.4247 25.7469 15.9521 25.7469 15.3391V14.5484ZM34.9594 19.1719C34.0083 19.1719 33.1977 19 32.5273 18.6562C31.857 18.3068 31.3471 17.7682 30.9977 17.0406C30.6482 16.313 30.4734 15.382 30.4734 14.2477C30.4734 13.0732 30.6711 12.1164 31.0664 11.3773C31.4674 10.6326 32.0203 10.0854 32.725 9.73594C33.4354 9.38646 34.2576 9.21172 35.1914 9.21172C35.856 9.21172 36.4289 9.2776 36.9102 9.40937C37.3971 9.53542 37.8211 9.68724 38.182 9.86484L37.4086 11.893C36.9961 11.7268 36.6122 11.5922 36.257 11.4891C35.9018 11.3802 35.5466 11.3258 35.1914 11.3258C34.7331 11.3258 34.3521 11.4346 34.0484 11.6523C33.7448 11.8643 33.5185 12.1852 33.3695 12.6148C33.2206 13.0445 33.1461 13.5831 33.1461 14.2305C33.1461 14.8664 33.2263 15.3935 33.3867 15.8117C33.5471 16.2299 33.7792 16.5422 34.0828 16.7484C34.3865 16.949 34.756 17.0492 35.1914 17.0492C35.7357 17.0492 36.2198 16.9776 36.6437 16.8344C37.0677 16.6854 37.4802 16.4792 37.8812 16.2156V18.4586C37.4802 18.7107 37.0591 18.8911 36.618 19C36.1826 19.1146 35.6297 19.1719 34.9594 19.1719ZM44.0516 9.19453C45.3406 9.19453 46.3289 9.47526 47.0164 10.0367C47.7039 10.5982 48.0477 11.4518 48.0477 12.5977V19H46.2172L45.7102 17.6937H45.6414C45.3664 18.0375 45.0857 18.3182 44.7992 18.5359C44.5128 18.7536 44.1833 18.9141 43.8109 19.0172C43.4385 19.1203 42.9859 19.1719 42.4531 19.1719C41.8859 19.1719 41.376 19.063 40.9234 18.8453C40.4766 18.6276 40.1242 18.2953 39.8664 17.8484C39.6086 17.3958 39.4797 16.8229 39.4797 16.1297C39.4797 15.1099 39.8378 14.3594 40.5539 13.8781C41.2701 13.3911 42.3443 13.1219 43.7766 13.0703L45.4437 13.0187V12.5977C45.4437 12.0935 45.312 11.724 45.0484 11.4891C44.7849 11.2542 44.4182 11.1367 43.9484 11.1367C43.4844 11.1367 43.0289 11.2026 42.582 11.3344C42.1352 11.4661 41.6883 11.6323 41.2414 11.8328L40.3734 10.0625C40.8833 9.79323 41.4534 9.58125 42.0836 9.42656C42.7195 9.27187 43.3755 9.19453 44.0516 9.19453ZM45.4437 14.5484L44.4297 14.5828C43.5818 14.6057 42.9917 14.7576 42.6594 15.0383C42.3328 15.319 42.1695 15.6885 42.1695 16.1469C42.1695 16.5479 42.287 16.8344 42.5219 17.0062C42.7568 17.1724 43.0633 17.2555 43.4414 17.2555C44.0029 17.2555 44.4755 17.0893 44.8594 16.757C45.249 16.4247 45.4437 15.9521 45.4437 15.3391V14.5484ZM54.9742 6.43594C56.5956 6.43594 57.7786 6.78542 58.5234 7.48437C59.2682 8.1776 59.6406 9.13437 59.6406 10.3547C59.6406 10.9047 59.5576 11.4318 59.3914 11.9359C59.2253 12.4344 58.9531 12.8784 58.575 13.268C58.2026 13.6576 57.7042 13.9669 57.0797 14.1961C56.4552 14.4195 55.6846 14.5312 54.768 14.5312H53.625V19H50.9609V6.43594H54.9742ZM54.8367 8.61875H53.625V12.3484H54.5016C55 12.3484 55.4326 12.2826 55.7992 12.1508C56.1659 12.019 56.4495 11.8128 56.65 11.532C56.8505 11.2513 56.9508 10.8904 56.9508 10.4492C56.9508 9.83047 56.7789 9.37214 56.4352 9.07422C56.0914 8.77057 55.5586 8.61875 54.8367 8.61875ZM77.8965 9.21172C78.0283 9.21172 78.1801 9.22031 78.352 9.2375C78.5296 9.24896 78.6728 9.26615 78.7817 9.28906L78.584 11.7469C78.4981 11.7182 78.3749 11.6982 78.2145 11.6867C78.0598 11.6695 77.9252 11.6609 77.8106 11.6609C77.4725 11.6609 77.1431 11.7039 76.8223 11.7898C76.5072 11.8758 76.2236 12.0161 75.9715 12.2109C75.7194 12.4 75.5189 12.6521 75.3699 12.9672C75.2267 13.2766 75.1551 13.6576 75.1551 14.1102V19H72.534V9.39219H74.5192L74.9059 11.0078H75.0348C75.2238 10.6812 75.4587 10.3833 75.7395 10.1141C76.0259 9.83906 76.3496 9.62135 76.7106 9.46094C77.0772 9.29479 77.4725 9.21172 77.8965 9.21172ZM89.3434 9.39219V19H87.3324L86.9801 17.7711H86.8426C86.6363 18.0977 86.3785 18.3641 86.0692 18.5703C85.7598 18.7766 85.4189 18.9284 85.0465 19.0258C84.6741 19.1232 84.2874 19.1719 83.8863 19.1719C83.1988 19.1719 82.6002 19.0516 82.0903 18.8109C81.5804 18.5646 81.1822 18.1836 80.8957 17.668C80.615 17.1523 80.4746 16.482 80.4746 15.657V9.39219H83.0957V15.0039C83.0957 15.6914 83.2189 16.2099 83.4653 16.5594C83.7116 16.9089 84.1041 17.0836 84.6426 17.0836C85.1754 17.0836 85.5936 16.9633 85.8973 16.7227C86.2009 16.4763 86.4129 16.1182 86.5332 15.6484C86.6593 15.1729 86.7223 14.5943 86.7223 13.9125V9.39219H89.3434ZM95.9949 19.1719C95.0439 19.1719 94.2332 19 93.5629 18.6562C92.8926 18.3068 92.3827 17.7682 92.0332 17.0406C91.6837 16.313 91.509 15.382 91.509 14.2477C91.509 13.0732 91.7067 12.1164 92.102 11.3773C92.503 10.6326 93.0559 10.0854 93.7606 9.73594C94.471 9.38646 95.2931 9.21172 96.227 9.21172C96.8916 9.21172 97.4645 9.2776 97.9457 9.40937C98.4327 9.53542 98.8567 9.68724 99.2176 9.86484L98.4442 11.893C98.0317 11.7268 97.6478 11.5922 97.2926 11.4891C96.9374 11.3802 96.5822 11.3258 96.227 11.3258C95.7686 11.3258 95.3876 11.4346 95.084 11.6523C94.7804 11.8643 94.5541 12.1852 94.4051 12.6148C94.2561 13.0445 94.1817 13.5831 94.1817 14.2305C94.1817 14.8664 94.2619 15.3935 94.4223 15.8117C94.5827 16.2299 94.8147 16.5422 95.1184 16.7484C95.422 16.949 95.7916 17.0492 96.227 17.0492C96.7712 17.0492 97.2554 16.9776 97.6793 16.8344C98.1033 16.6854 98.5158 16.4792 98.9168 16.2156V18.4586C98.5158 18.7107 98.0947 18.8911 97.6535 19C97.2181 19.1146 96.6653 19.1719 95.9949 19.1719ZM103.772 5.62812V8.35234C103.772 8.82786 103.755 9.28047 103.721 9.71016C103.692 10.1398 103.669 10.4435 103.652 10.6211H103.789C103.996 10.2888 104.239 10.0195 104.52 9.81328C104.806 9.60703 105.122 9.45521 105.465 9.35781C105.809 9.26042 106.179 9.21172 106.574 9.21172C107.267 9.21172 107.872 9.3349 108.387 9.58125C108.903 9.82187 109.304 10.2029 109.59 10.7242C109.877 11.2398 110.02 11.9102 110.02 12.7352V19H107.399V13.3883C107.399 12.7008 107.273 12.1823 107.021 11.8328C106.769 11.4833 106.379 11.3086 105.852 11.3086C105.325 11.3086 104.91 11.4318 104.606 11.6781C104.302 11.9187 104.087 12.2768 103.961 12.7523C103.835 13.2221 103.772 13.7979 103.772 14.4797V19H101.151V5.62812H103.772Z" fill="#FDF1F2"/>
<defs>
<clipPath id="clip0_66_381">
<rect width="8.8" height="11" fill="white" transform="translate(61.6001 7.7002)"/>
</clipPath>
</defs>
</svg>
