<svg width="45" height="54" viewBox="0 0 45 54" fill="none" xmlns="http://www.w3.org/2000/svg">
<path fill-rule="evenodd" clip-rule="evenodd" d="M18.9931 0.2439C18.9115 0.437428 19.0238 0.652485 19.2439 0.724243C25.6038 2.79798 31.6041 6.62123 35.8051 11.3368C40.2035 16.274 43.443 23.7184 43.465 29.9873C43.492 37.6769 38.4044 44.6437 30.7984 48.3031C27.2163 50.0265 24.3439 50.7233 20.306 51.2778C16.5608 51.7921 13.0384 51.6093 9.38347 51.4197C7.94055 51.3448 6.47698 51.2688 4.9709 51.2343C4.73626 51.2289 4.54109 51.3918 4.53497 51.5981C4.52885 51.8045 4.7141 51.9761 4.94874 51.9815C6.3943 52.0146 7.82314 52.0888 9.24748 52.1626C12.9367 52.354 16.5958 52.5438 20.4371 52.0163C24.5416 51.4526 27.5148 50.7349 31.2064 48.9588C39.0626 45.1791 44.343 37.9711 44.315 29.985C44.2924 23.5311 40.9754 15.9285 36.4742 10.8759C32.1751 6.05015 26.0448 2.1446 19.5394 0.023414C19.3193 -0.0483438 19.0747 0.0503709 18.9931 0.2439Z" fill="#FDF1F2"/>
<path fill-rule="evenodd" clip-rule="evenodd" d="M9.22476 49.3231C9.12361 49.1368 8.86991 49.058 8.65811 49.1469C7.86165 49.4814 7.00435 49.6837 6.11354 49.8939C5.79162 49.9699 5.46533 50.0469 5.13595 50.1315C3.85381 50.461 2.61627 50.6655 1.29472 50.7353C1.25454 50.7374 1.19836 50.7424 1.13958 50.7577C1.09895 50.7683 0.955776 50.8083 0.867096 50.9411C0.752347 51.113 0.824808 51.2758 0.873633 51.3459C0.918558 51.4104 0.975354 51.4517 1.00248 51.4704C1.10765 51.5429 1.27568 51.6096 1.40426 51.6582C1.55172 51.7139 1.72252 51.7724 1.87533 51.8241C1.90615 51.8345 1.93605 51.8446 1.96487 51.8544C2.0836 51.8944 2.18402 51.9283 2.25529 51.9543C3.77308 52.5077 5.15855 53.1958 6.59214 53.9468C6.79378 54.0524 7.05463 53.9943 7.17476 53.817C7.29489 53.6397 7.22881 53.4103 7.02716 53.3047C5.65619 52.5864 4.29654 51.908 2.80981 51.3487C3.67274 51.2373 4.51636 51.0694 5.37435 50.849C5.6627 50.7749 5.96314 50.704 6.26992 50.6317C7.18249 50.4166 8.15114 50.1882 9.02443 49.8214C9.23623 49.7324 9.32592 49.5093 9.22476 49.3231ZM1.34211 51.4816C1.34216 51.4816 1.34286 51.4816 1.34416 51.4815C1.34272 51.4815 1.34205 51.4816 1.34211 51.4816Z" fill="#FDF1F2"/>
</svg>
