<svg width="10" height="12" viewBox="0 0 10 12" fill="none" xmlns="http://www.w3.org/2000/svg">
<g clip-path="url(#clip0_127_206)">
<path d="M9.40832 0.608484C9.33122 0.529024 9.23965 0.465983 9.13884 0.422971C9.03803 0.379958 8.92996 0.357818 8.82082 0.357818C8.71168 0.357818 8.60361 0.379958 8.5028 0.422971C8.40198 0.465983 8.31041 0.529024 8.23332 0.608484L4.99998 3.92563L1.75832 0.599913C1.68116 0.520557 1.58957 0.457608 1.48877 0.414661C1.38797 0.371714 1.27993 0.349609 1.17082 0.349609C1.06171 0.349609 0.953667 0.371714 0.852863 0.414661C0.75206 0.457608 0.660468 0.520557 0.583316 0.599913C0.506164 0.679268 0.444964 0.773478 0.40321 0.877161C0.361456 0.980845 0.339966 1.09197 0.339966 1.2042C0.339966 1.31642 0.361456 1.42755 0.40321 1.53124C0.444964 1.63492 0.506164 1.72913 0.583316 1.80848L4.40832 5.74277C4.73332 6.07706 5.25832 6.07706 5.58332 5.74277L9.40832 1.80848C9.48552 1.73004 9.54681 1.63661 9.58864 1.53361C9.63048 1.43062 9.65202 1.32011 9.65202 1.20848C9.65202 1.09686 9.63048 0.986351 9.58864 0.883357C9.54681 0.780362 9.48552 0.686932 9.40832 0.608484Z" fill="#0D0106"/>
<path d="M9.40835 6.25692C9.33125 6.17746 9.23968 6.11442 9.13887 6.07141C9.03805 6.0284 8.92998 6.00626 8.82084 6.00626C8.7117 6.00626 8.60363 6.0284 8.50282 6.07141C8.40201 6.11442 8.31044 6.17746 8.23334 6.25692L5.00001 9.57407L1.76668 6.24835C1.61086 6.08808 1.39953 5.99805 1.17918 5.99805C0.958823 5.99805 0.747493 6.08808 0.591678 6.24835C0.435864 6.40862 0.348328 6.62599 0.348328 6.85264C0.348328 7.07929 0.435864 7.29666 0.591678 7.45692L4.41668 11.3912C4.74168 11.7255 5.26668 11.7255 5.59168 11.3912L9.41668 7.45692C9.56966 7.29632 9.65466 7.07999 9.6531 6.85515C9.65154 6.63032 9.56355 6.41525 9.40835 6.25692Z" fill="#0D0106"/>
</g>
<defs>
<clipPath id="clip0_127_206">
<rect width="10" height="12" fill="white"/>
</clipPath>
</defs>
</svg>
