<svg width="14" height="12" viewBox="0 0 14 12" fill="none" xmlns="http://www.w3.org/2000/svg">
<g clip-path="url(#clip0_81_451)">
<path d="M6.22231 12C6.00194 12 5.81709 11.928 5.66776 11.784C5.51842 11.64 5.44401 11.462 5.44453 11.25V6.75L0.933422 1.2C0.738978 0.95 0.709681 0.6875 0.845533 0.4125C0.981385 0.1375 1.21809 0 1.55564 0H12.4445C12.7816 0 13.0183 0.1375 13.1546 0.4125C13.291 0.6875 13.2617 0.95 13.0668 1.2L8.55564 6.75V11.25C8.55564 11.4625 8.48098 11.6407 8.33164 11.7847C8.18231 11.9287 7.99772 12.0005 7.77787 12H6.22231ZM7.00009 6.225L10.8501 1.5H3.15009L7.00009 6.225Z" fill="#FDF1F2"/>
<path d="M7.00009 6.225L10.8501 1.5H3.15009L7.00009 6.225Z" fill="#FDF1F2"/>
</g>
<defs>
<clipPath id="clip0_81_451">
<rect width="14" height="12" fill="white"/>
</clipPath>
</defs>
</svg>
