<svg width="102" height="49" viewBox="0 0 102 49" fill="none" xmlns="http://www.w3.org/2000/svg">
<path fill-rule="evenodd" clip-rule="evenodd" d="M101.449 0.871124C101.816 0.940049 102.057 1.29318 101.988 1.65985C100.59 9.09881 96.1201 15.8011 90.3675 21.2495C84.6123 26.7004 77.5322 30.9364 70.8269 33.4362C49.9686 41.2123 27.9941 42.5066 6.10726 43.2444C5.73437 43.257 5.4219 42.9649 5.40933 42.592C5.39676 42.2191 5.68885 41.9066 6.06174 41.894C27.9524 41.1562 49.7252 39.8611 70.3549 32.1702C76.8986 29.7307 83.8212 25.5888 89.4384 20.2685C95.0584 14.9458 99.3308 8.48368 100.66 1.41026C100.729 1.04358 101.082 0.802199 101.449 0.871124Z" fill="#FDF1F2"/>
<path fill-rule="evenodd" clip-rule="evenodd" d="M8.69625 38.1326C9.03775 38.2828 9.19279 38.6815 9.04252 39.023C8.79097 39.5947 8.49411 40.0729 8.09422 40.4819C7.69491 40.8903 7.22008 41.2019 6.64817 41.475C4.83981 42.3386 2.82532 42.7842 0.941086 43.1091C0.57341 43.1725 0.22396 42.9258 0.160567 42.5581C0.0971748 42.1905 0.343845 41.841 0.711521 41.7776C2.56759 41.4576 4.43134 41.0364 6.06593 40.2558C6.53792 40.0304 6.86879 39.8026 7.12813 39.5373C7.3869 39.2727 7.60164 38.9429 7.80583 38.4789C7.95609 38.1373 8.35474 37.9823 8.69625 38.1326Z" fill="#FDF1F2"/>
<path fill-rule="evenodd" clip-rule="evenodd" d="M0.0281657 42.2929C0.134446 41.9352 0.510531 41.7315 0.868174 41.8377C1.17369 41.9285 1.50328 42.0205 1.84873 42.117C3.04277 42.4503 4.42635 42.8366 5.66085 43.4082C7.27148 44.1539 8.78047 45.278 9.41155 47.1712C9.52954 47.5252 9.33825 47.9078 8.98429 48.0258C8.63034 48.1437 8.24776 47.9525 8.12977 47.5985C7.66752 46.2118 6.54748 45.3076 5.09319 44.6343C3.96826 44.1134 2.73369 43.7682 1.55601 43.4389C1.19133 43.337 0.832116 43.2365 0.483298 43.1329C0.125654 43.0266 -0.078115 42.6505 0.0281657 42.2929Z" fill="#FDF1F2"/>
</svg>
