<svg width="14" height="18" viewBox="0 0 14 18" fill="none" xmlns="http://www.w3.org/2000/svg">
<g clip-path="url(#clip0_81_389)">
<path d="M7 18C7 18 13.75 11.6033 13.75 6.75C13.75 4.95979 13.0388 3.2429 11.773 1.97703C10.5071 0.711159 8.79021 0 7 0C5.20979 0 3.4929 0.711159 2.22703 1.97703C0.961159 3.2429 0.25 4.95979 0.25 6.75C0.25 11.6033 7 18 7 18ZM7 10.125C6.10489 10.125 5.24645 9.76942 4.61351 9.13649C3.98058 8.50355 3.625 7.64511 3.625 6.75C3.625 5.85489 3.98058 4.99645 4.61351 4.36351C5.24645 3.73058 6.10489 3.375 7 3.375C7.89511 3.375 8.75355 3.73058 9.38649 4.36351C10.0194 4.99645 10.375 5.85489 10.375 6.75C10.375 7.64511 10.0194 8.50355 9.38649 9.13649C8.75355 9.76942 7.89511 10.125 7 10.125Z" fill="#339D5B"/>
</g>
<defs>
<clipPath id="clip0_81_389">
<rect width="14" height="18" fill="white"/>
</clipPath>
</defs>
</svg>
