<svg width="24" height="30" viewBox="0 0 24 30" fill="none" xmlns="http://www.w3.org/2000/svg">
<g clip-path="url(#clip0_234_110)">
<path d="M12.0002 29.2857C12.0002 29.2857 23.2943 18.8783 23.2943 10.9821C23.2943 8.0695 22.1044 5.27614 19.9863 3.21659C17.8682 1.15704 14.9956 0 12.0002 0C9.00476 0 6.13208 1.15704 4.01402 3.21659C1.89597 5.27614 0.706055 8.0695 0.706055 10.9821C0.706055 18.8783 12.0002 29.2857 12.0002 29.2857ZM12.0002 16.4732C10.5025 16.4732 9.0661 15.8947 8.00707 14.8649C6.94807 13.8351 6.35311 12.4385 6.35311 10.9821C6.35311 9.52579 6.94807 8.12914 8.00707 7.09937C9.0661 6.06959 10.5025 5.49107 12.0002 5.49107C13.4978 5.49107 14.9342 6.06959 15.9933 7.09937C17.0522 8.12914 17.6472 9.52579 17.6472 10.9821C17.6472 12.4385 17.0522 13.8351 15.9933 14.8649C14.9342 15.8947 13.4978 16.4732 12.0002 16.4732Z" fill="#EE7D21"/>
<path d="M12.0002 16.4732C10.5025 16.4732 9.0661 15.8947 8.00707 14.8649C6.94807 13.8351 6.35311 12.4385 6.35311 10.9821C6.35311 9.52579 6.94807 8.12914 8.00707 7.09937C9.0661 6.06959 10.5025 5.49107 12.0002 5.49107C13.4978 5.49107 14.9342 6.06959 15.9933 7.09937C17.0522 8.12914 17.6472 9.52579 17.6472 10.9821C17.6472 12.4385 17.0522 13.8351 15.9933 14.8649C14.9342 15.8947 13.4978 16.4732 12.0002 16.4732Z" fill="#EE7D21"/>
<path d="M12 16C14.7614 16 17 13.7614 17 11C17 8.23858 14.7614 6 12 6C9.23858 6 7 8.23858 7 11C7 13.7614 9.23858 16 12 16Z" fill="white"/>
</g>
<defs>
<clipPath id="clip0_234_110">
<rect width="24" height="30" fill="white"/>
</clipPath>
</defs>
</svg>
